<?xml version="1.0" standalone="no"?>
<!DOCTYPE svg PUBLIC "-//W3C//DTD SVG 20010904//EN"
 "http://www.w3.org/TR/2001/REC-SVG-20010904/DTD/svg10.dtd">
<svg version="1.0" xmlns="http://www.w3.org/2000/svg"
 width="260.000000pt" height="260.000000pt" viewBox="0 0 260.000000 260.000000"
 preserveAspectRatio="xMidYMid meet">
<metadata>
Created by potrace 1.14, written by Peter Selinger 2001-2017
</metadata>
<g transform="translate(0.000000,260.000000) scale(0.100000,-0.100000)"
fill="#000000" stroke="none">
<path d="M1130 2590 c0 -3 -10 -7 -22 -7 -43 -2 -87 -12 -109 -23 -16 -9 -20
-9 -14 0 6 9 3 9 -12 1 -11 -5 -33 -12 -48 -15 -16 -3 -32 -11 -37 -18 -4 -7
-8 -9 -8 -4 0 5 -8 2 -17 -5 -12 -10 -15 -10 -9 -1 6 10 2 10 -18 0 -14 -6
-26 -15 -26 -20 0 -5 -4 -7 -8 -4 -5 3 -30 -6 -55 -19 -26 -13 -47 -20 -47
-17 0 4 -5 -1 -11 -11 -6 -9 -14 -15 -20 -12 -5 4 -9 1 -9 -4 0 -6 -3 -10 -7
-9 -13 3 -113 -63 -113 -75 0 -5 -3 -8 -6 -4 -7 7 -19 -2 -71 -53 -20 -19 -33
-28 -28 -20 4 8 -8 -3 -29 -25 -20 -22 -36 -43 -36 -47 0 -5 -7 -8 -15 -8 -8
0 -15 -7 -15 -17 0 -9 -3 -14 -6 -10 -6 6 -13 -2 -84 -100 -19 -26 -40 -54
-47 -61 -7 -8 -11 -18 -8 -23 4 -5 2 -9 -3 -9 -5 0 -15 -13 -22 -30 -7 -16
-17 -30 -23 -30 -6 0 -7 -3 -4 -7 4 -3 0 -17 -8 -30 -9 -13 -13 -23 -10 -23 4
0 -1 -7 -9 -16 -9 -8 -14 -20 -11 -25 4 -5 1 -9 -6 -9 -7 0 -10 -3 -6 -6 3 -4
0 -19 -9 -35 -8 -16 -12 -29 -9 -29 3 0 -2 -14 -10 -30 -9 -17 -13 -35 -10
-40 3 -6 1 -10 -5 -10 -7 0 -10 -7 -6 -15 3 -8 1 -15 -3 -15 -5 0 -8 -11 -6
-25 1 -14 -1 -25 -6 -25 -5 0 -6 -7 -3 -15 4 -8 2 -15 -4 -15 -6 0 -8 -13 -5
-31 3 -24 1 -29 -9 -24 -10 6 -11 5 0 -6 14 -15 16 -33 3 -25 -12 8 -11 -276
1 -291 6 -8 7 -13 1 -13 -5 0 -10 -7 -10 -15 0 -8 4 -12 8 -10 4 3 7 -5 7 -18
-1 -37 6 -77 13 -77 3 0 5 -10 4 -22 -1 -13 2 -28 7 -34 5 -7 10 -26 11 -43 1
-17 5 -31 10 -31 4 0 7 -9 7 -19 0 -11 5 -23 10 -26 6 -3 10 -13 10 -20 0 -8
12 -40 26 -72 15 -32 26 -60 25 -62 -2 -2 1 -7 6 -10 5 -3 23 -31 41 -61 32
-57 54 -89 85 -121 9 -11 14 -19 11 -19 -4 0 10 -17 30 -37 20 -21 36 -41 36
-46 0 -4 4 -5 10 -2 6 3 10 2 10 -4 0 -6 16 -26 35 -45 19 -20 35 -33 35 -30
0 4 17 -10 37 -30 21 -20 45 -39 55 -42 10 -3 18 -10 18 -15 0 -5 7 -9 15 -9
8 0 15 -4 15 -8 0 -5 12 -15 27 -23 16 -8 30 -16 33 -19 12 -12 180 -90 194
-90 9 0 16 -5 16 -11 0 -5 4 -8 9 -4 5 3 12 1 16 -4 3 -6 13 -7 22 -4 9 4 14
2 11 -3 -4 -5 5 -10 18 -10 13 -1 32 -5 42 -10 9 -4 26 -8 37 -9 11 0 26 -4
33 -8 6 -5 17 -5 22 -2 5 3 10 1 10 -5 0 -6 4 -8 10 -5 5 3 18 1 29 -5 13 -7
22 -7 26 0 4 6 13 7 23 1 23 -11 250 -13 272 -1 9 5 20 6 24 3 9 -9 46 -11 41
-2 -8 12 22 18 34 6 8 -8 11 -8 11 1 0 7 12 12 26 12 14 0 34 5 45 10 14 8 19
7 19 -2 0 -11 2 -10 9 0 4 7 18 14 29 15 12 1 22 5 22 9 0 4 9 8 19 8 25 0
215 82 231 100 3 3 19 12 35 20 17 8 35 20 42 25 7 6 19 16 27 22 8 7 19 13
23 13 5 0 16 8 25 18 8 9 25 24 37 33 42 31 141 129 141 139 0 6 4 10 9 10 4
0 28 27 52 60 24 33 48 60 53 60 5 0 7 3 3 6 -3 3 9 29 27 57 31 50 88 161 93
182 2 10 41 127 51 155 5 14 8 32 11 66 0 8 6 12 12 8 8 -5 8 -1 0 14 -8 14
-8 23 -1 27 6 4 8 15 5 26 -4 11 -2 19 4 19 6 0 11 5 11 11 0 5 -6 7 -12 3
-10 -6 -10 -4 -2 7 8 9 11 66 11 161 0 118 -3 148 -15 153 -9 3 -11 10 -5 18
7 11 9 34 3 47 -2 5 -5 16 -14 65 -2 11 -7 28 -11 37 -4 10 -8 29 -9 43 0 14
-4 25 -8 25 -5 0 -8 8 -8 18 0 10 -4 22 -8 28 -5 5 -15 28 -22 52 -7 23 -17
42 -22 42 -6 0 -8 6 -6 12 3 7 -1 19 -9 26 -7 8 -11 18 -8 23 4 5 2 9 -3 9 -5
0 -15 14 -22 31 -7 17 -19 37 -26 44 -7 7 -15 19 -16 26 -2 8 -11 20 -21 27
-9 7 -15 17 -12 22 3 4 -2 10 -10 14 -8 3 -15 10 -15 17 0 6 -13 24 -30 39
-16 15 -30 30 -30 33 0 8 -101 107 -109 107 -4 0 -13 9 -21 20 -8 11 -19 20
-25 20 -6 0 -16 9 -23 20 -7 11 -19 20 -27 20 -8 0 -15 4 -15 8 0 5 -10 14
-22 21 -13 6 -45 25 -73 41 -27 17 -67 38 -87 48 -21 9 -38 20 -38 23 0 4 -10
5 -22 2 -13 -3 -20 -2 -15 2 8 9 -56 35 -85 35 -10 0 -18 4 -18 9 0 5 -13 8
-29 7 -17 -1 -28 2 -25 6 3 4 -3 9 -13 10 -33 2 -38 3 -51 12 -7 4 -16 5 -19
2 -3 -3 -14 -1 -24 5 -14 7 -19 6 -19 -2 0 -8 -4 -8 -15 1 -8 7 -22 10 -30 6
-9 -3 -13 -2 -10 4 3 6 1 10 -4 10 -6 0 -11 -6 -11 -12 0 -10 -2 -10 -8 -1 -6
9 -49 12 -155 10 -81 -1 -147 -4 -147 -7z"/>
</g>
</svg>
