<svg viewBox="0 0 60 40" focusable="false" class="chakra-icon css-10xshfx"><g><g transform="matrix(-1.0180773,0,0,1.1155337,-89.527813,-95.238047)" style="font-size: 50px; stroke-width: 5px;"><path fill="currentColor" d="m -87.938129,121.2317 h -6.188932 l -11.992559,-14.25622 h -6.71872 v 14.25622 h -4.76813 V 85.374424 h 10.04196 q 3.251,0 5.41833,0.433466 2.167328,0.409384 3.901192,1.493049 1.950597,1.228154 3.034262,3.106507 1.107747,1.854271 1.107747,4.719963 0,3.877113 -1.950597,6.501991 -1.950598,2.6008 -5.370164,3.92528 z m -11.14971,-25.76715 q 0,-1.541213 -0.553873,-2.721204 -0.529788,-1.204072 -1.782028,-2.022841 -1.0355,-0.698362 -2.45631,-0.963258 -1.4208,-0.288977 -3.34732,-0.288977 h -5.61097 v 13.53377 h 4.81628 q 2.26366,0 3.94936,-0.3853 1.6857,-0.40939 2.86569,-1.49305 1.08367,-1.01142 1.58938,-2.311819 0.529791,-1.32448 0.529791,-3.347321 z m -47.784911,25.76715 h 6.18893 l 11.99256,-14.25621 h 6.71873 v 14.25621 h 4.76812 V 85.374424 h -10.04196 q -3.25099,0 -5.41832,0.433466 -2.16734,0.409385 -3.9012,1.49305 -1.9506,1.228154 -3.03426,3.106507 -1.10775,1.854271 -1.10775,4.719963 0,3.877113 1.9506,6.50199 1.9506,2.6008 5.37016,3.92528 z m 11.14971,-25.76715 q 0,-1.541212 0.55387,-2.721203 0.5298,-1.204072 1.78203,-2.022842 1.0355,-0.698361 2.45631,-0.963257 1.4208,-0.288978 3.34732,-0.288978 h 5.61098 v 13.53378 h -4.81629 q -2.26366,0 -3.94936,-0.38531 -1.6857,-0.40938 -2.86569,-1.49305 -1.08367,-1.01142 -1.58938,-2.311819 -0.52979,-1.324479 -0.52979,-3.347321 z"></path></g></g></svg>